<!--?xml version="1.0" standalone="no"?-->
              <svg id="sw-js-blob-svg" viewBox="0 0 100 100" xmlns="http://www.w3.org/2000/svg" version="1.1">
                    <defs> 
                        <linearGradient id="sw-gradient" x1="0" x2="1" y1="1" y2="0">
                            <stop id="stop1" stop-color="rgba(248, 117, 55, 1)" offset="0%"></stop>
                            <stop id="stop2" stop-color="rgba(251, 168, 31, 1)" offset="100%"></stop>
                        </linearGradient>
                    </defs>
                <path fill="url(#sw-gradient)" d="M21.7,-33.6C27.7,-29.9,31.9,-23.2,35.4,-16C38.9,-8.9,41.7,-1.2,38.4,3.9C35.2,9.1,25.9,11.8,19.9,15.2C13.8,18.7,10.9,22.9,6.1,27.1C1.4,31.4,-5.2,35.7,-10.8,35C-16.4,34.2,-21.1,28.3,-24.3,22.3C-27.5,16.4,-29.3,10.4,-29.7,4.5C-30.2,-1.4,-29.4,-7.2,-26.5,-11.5C-23.6,-15.8,-18.6,-18.5,-13.8,-22.8C-9.1,-27.1,-4.5,-33,1.6,-35.5C7.8,-38.1,15.7,-37.3,21.7,-33.6Z" width="100%" height="100%" transform="translate(50 50)" stroke-width="0" style="transition: all 0.3s ease 0s;"></path>
              </svg>